<?xml version="1.0" encoding="utf-8"?>
<!-- Generator: Adobe Illustrator 17.1.0, SVG Export Plug-In . SVG Version: 6.00 Build 0)  -->
<!DOCTYPE svg PUBLIC "-//W3C//DTD SVG 1.1 Tiny//EN" "http://www.w3.org/Graphics/SVG/1.1/DTD/svg11-tiny.dtd">
<svg version="1.1" baseProfile="tiny" id="Icon" xmlns="http://www.w3.org/2000/svg" xmlns:xlink="http://www.w3.org/1999/xlink"
	 x="0px" y="0px" viewBox="0 0 542.091 512" xml:space="preserve">
<path id="W-Path_1_" fill="#2E67B1" stroke="#231F20" stroke-width="2" stroke-miterlimit="10" d="M504.085,294.103l-173,186.028
	h-48l-4-116l-60,116h-48l-163-157.506V119.432l187.99,289.583l71.01-92.885h44l4,112l189-302.973c0,0,29.582,37.175,31.582,81.509
	S504.085,294.103,504.085,294.103z"/>
<path id="S-Path_1_" fill="#478ECC" stroke="#231F20" stroke-width="2" stroke-miterlimit="10" d="M204.778,248.809
	c-18.353,0-34.71-1.54-49.072-4.635c-14.362-3.094-137.15-31.066-147.621-35.654V64.041l127.517,118.443
	c9.892,8.807,21.523,15.621,34.876,20.447c13.353,4.827,27.718,7.233,43.093,7.233c15.757,0,27.327-2.083,34.731-6.255
	c7.398-4.166,11.096-10.136,11.096-17.911c0-2.903-0.597-5.409-1.798-7.518c-1.207-2.106-3.533-4.192-6.998-6.254
	c-3.452-2.057-8.185-4.093-14.188-6.11c-6.009-2.013-13.767-4.33-23.278-6.955c-10.471-2.81-19.863-5.852-28.172-9.132
	c-8.313-3.279-15.401-7.167-21.259-11.663c-5.863-4.588-10.305-9.885-13.332-15.875c-3.025-5.997-4.539-13.161-4.539-21.5
	c0-20.981,9.488-37.727,28.462-50.232C193.273,38.252,219.235,32,252.189,32c15.856,0,30.822,1.265,44.894,3.795
	c14.074,2.529,197.202,62.368,207.002,66.674c0,0,21.582,24.531,29.582,70.198s-8,84-8,84L316.472,94.246
	c-7.494-6.706-17.374-12.314-29.622-16.83c-12.248-4.516-25.629-6.777-40.133-6.777c-14.223,0-25.222,2.003-33.004,6.007
	c-7.782,4.005-11.671,9.541-11.671,16.615c0,3.281,0.577,5.995,1.729,8.151c1.153,2.155,3.506,4.265,7.06,6.32
	c3.071,1.878,7.922,3.914,14.556,6.116c6.626,2.202,14.405,4.47,23.342,6.811c24.021,6.277,41.174,13.63,51.454,22.063
	c10.28,8.427,15.428,19.858,15.428,34.283c0,12.083-2.801,22.715-8.367,31.895c-5.569,9.179-13.26,16.63-23.059,22.343
	c-10.281,6.093-21.952,10.542-35.021,13.345C236.096,247.4,221.299,248.809,204.778,248.809z"/>
</svg>
